<?xml version="1.0" encoding="UTF-8" standalone="no"?><!DOCTYPE svg PUBLIC "-//W3C//DTD SVG 1.1//EN" "http://www.w3.org/Graphics/SVG/1.1/DTD/svg11.dtd"><svg width="100%" height="100%" viewBox="0 0 179 195" version="1.1" xmlns="http://www.w3.org/2000/svg" xmlns:xlink="http://www.w3.org/1999/xlink" xml:space="preserve" style="fill-rule:evenodd;clip-rule:evenodd;stroke-linejoin:round;stroke-miterlimit:1.41421;"><g id="g4192"><path id="path4168" d="M2.99,0l11.309,11.981c0.196,7.236 6.308,11.85 9.236,16.896c2.927,5.046 6.332,6.764 8.277,12.267c1.944,5.502 3.201,13.207 6.65,17.12c3.449,3.913 5.701,5.81 10.655,10.724c4.283,4.248 17.504,10.684 20.441,13.171c-6.503,12.505 -5.955,23.735 0.809,31.965c0,0 -4.848,10.978 -5.131,21.885c-0.283,10.906 0.875,16.948 4.563,24.504c3.688,7.556 8.655,13.283 19.69,20.64c11.036,7.357 29.832,13.847 29.832,13.847c0,0 -7.84,-7.101 -13.043,-20.669c-5.204,-13.568 -6.445,-26.073 -6.445,-26.073c0,0 0.091,2.194 9.424,5.757c5.556,2.121 13.991,3.602 13.991,3.602l-11.749,-13.527l6.892,-0.176c0,0 -4.112,-1.978 -5.943,-3.524c-1.831,-1.546 -5.043,-5.752 -5.043,-5.752l7.79,-4.811c0,0 -5.466,0.66 -7.793,-5.075l-2.328,-5.735c2.146,-1.439 6.539,-4.97 7.93,-6.316c3.159,-3.058 4.867,-5.854 7.286,-10.696c2.151,-4.303 3.658,-10.395 3.876,-15.05c0.139,-2.956 0.082,-6.413 0.076,-8.961c0,0 5.264,-1.859 7.994,-6.17c1.638,-2.588 3.598,-6.735 3.252,-9.999c-0.603,-1.745 -1.187,-3.289 -1.777,-4.662c-2.353,-5.475 -4.802,-8.237 -8.927,-10.23c-4.022,-1.945 -8.376,-2.039 -10.069,-2.035c-3.724,0.007 -7.775,1.208 -11.95,4.971c-4.851,4.373 -6.417,9.901 -8.799,13.775c-0.531,0.042 0.545,0.105 0.015,0.187l-0.025,-0.488c0,0 -2.677,-9.554 -7.948,-17.046c-4.543,-6.456 -10.704,-12.089 -16.991,-17.422c-6.288,-5.334 -11.554,-9.087 -21.781,-14.776c-8.818,-4.906 -44.246,-14.099 -44.246,-14.099l0,0Z" style="fill:#fff;fill-rule:nonzero;"/><path id="path4922" d="M2.99,0l11.309,11.981c0.196,7.236 6.308,11.851 9.236,16.897c2.927,5.046 6.332,6.764 8.277,12.267c1.945,5.502 3.2,13.208 6.649,17.121c3.449,3.913 5.703,5.809 10.657,10.724c0.122,0.121 0.275,0.25 0.412,0.375c14.564,2.548 48.592,13.741 48.936,13.854l0.028,-0.022l-0.021,0.024c0.002,0 0.117,0.038 0.117,0.038l-0.12,-0.035l0.003,-0.003l-0.007,-0.002c-0.051,0.04 -4.782,3.702 -6.444,5.154c-1.671,1.459 -1.898,1.817 -4.179,4.488c-2.282,2.671 -2.574,3.597 -5.29,7.626c-2.226,3.303 -7.888,12.373 -9.965,15.515c-0.457,0.691 -0.498,0.761 -0.498,0.761l-0.317,0.464c-0.899,0.712 -1.768,1.277 -2.557,1.603c-0.228,0.093 -0.464,0.171 -0.695,0.259c-1.404,4.217 -3.12,10.549 -3.285,16.92c-0.284,10.907 0.874,16.948 4.563,24.504c3.688,7.557 8.654,13.284 19.69,20.641c11.036,7.357 29.832,13.846 29.832,13.846c0,0 -7.84,-7.101 -13.043,-20.669c-5.204,-13.568 -6.444,-26.071 -6.444,-26.071c0,0 0.091,2.193 9.423,5.755c5.556,2.121 13.991,3.602 13.991,3.602l-11.75,-13.526l6.892,-0.176c0,0 -4.112,-1.979 -5.942,-3.524c-1.831,-1.546 -5.042,-5.751 -5.042,-5.751l7.79,-4.812c0,0 -5.467,0.659 -7.795,-5.076l-2.326,-5.735c2.145,-1.439 6.539,-4.969 7.929,-6.315c3.159,-3.058 4.867,-5.854 7.286,-10.696c2.151,-4.303 3.658,-10.396 3.876,-15.051c0.139,-2.956 0.083,-6.413 0.076,-8.961c0,0 5.265,-1.859 7.994,-6.17c1.639,-2.587 3.598,-6.734 3.252,-9.999c-0.603,-1.745 -1.187,-3.289 -1.777,-4.662c-2.352,-5.475 -4.802,-8.236 -8.927,-10.229c-4.022,-1.944 -8.376,-2.038 -10.069,-2.035c-3.724,0.007 -7.775,1.207 -11.95,4.97c-4.848,4.37 -6.416,9.893 -8.795,13.767l0.004,0.088c0.136,0.031 0.27,0.067 0.006,0.108l-0.006,-0.108l-0.001,0c-0.136,-0.032 -0.273,-0.059 -0.008,-0.079c0.002,-0.003 0.003,-0.006 0.005,-0.009l-0.015,-0.293c0,0 -2.676,-9.553 -7.948,-17.045c-4.542,-6.456 -10.703,-12.089 -16.991,-17.423c-6.287,-5.334 -11.554,-9.087 -21.78,-14.776c-8.819,-4.906 -44.246,-14.099 -44.246,-14.099l0,0Z" style="fill:#ee5a5a;fill-rule:nonzero;"/><path id="path4924" d="M135.299,61.29l42.85,-7.514c0,0 0.012,0.132 0.007,0.067l-0.005,-0.068c-0.005,-0.065 0.004,0.03 0.004,0.03l-42.633,9.219c-0.054,0.012 -0.106,-0.034 -0.114,-0.099l-0.193,-1.5c-0.009,-0.065 0.029,-0.125 0.084,-0.135l0,0Z" style="fill:#ee5a5a;fill-rule:nonzero;"/><path id="path4934" d="M0,62.151c0,0 17.612,28.446 23.661,35.734c6.05,7.288 9.932,10.368 15,13.555c5.069,3.188 12.009,5.177 16.73,5.756c4.722,0.579 9.12,-0.057 12.931,-1.735c0.628,-0.276 1.319,-0.756 2.035,-1.36l0.252,-0.395c0,0 0.033,-0.058 0.396,-0.645c1.654,-2.668 6.159,-10.373 7.931,-13.178c2.161,-3.422 2.394,-4.207 4.209,-6.476c1.816,-2.268 1.996,-2.572 3.326,-3.811c1.329,-1.24 5.149,-4.396 5.149,-4.396l-0.018,0.022l0.096,0.03c0,0 -34.507,-12.127 -42.539,-12.239c-8.032,-0.113 -11.384,-2.075 -18.384,-3.012c-7,-0.937 -30.775,-7.85 -30.775,-7.85l0,0Z" style="fill:#ee5a5a;"/></g></svg>